Coordinates
version=1
nRows=13
nColumns=36
inDegrees=yes

Units are S.I. units (second, meters, Newtons, ...)
If the header above contains a line with 'inDegrees', this indicates whether rotational values are in degrees (yes) or radians (no).

endheader
time	pelvis_tilt	pelvis_list	pelvis_rotation	pelvis_tx	pelvis_ty	pelvis_tz	hip_flexion_r	hip_adduction_r	hip_rotation_r	knee_angle_r	knee_angle_r_beta	ankle_angle_r	subtalar_angle_r	mtp_angle_r	hip_flexion_l	hip_adduction_l	hip_rotation_l	knee_angle_l	knee_angle_l_beta	ankle_angle_l	subtalar_angle_l	mtp_angle_l	lumbar_extension	lumbar_bending	lumbar_rotation	arm_flex_r	arm_add_r	arm_rot_r	elbow_flex_r	pro_sup_r	arm_flex_l	arm_add_l	arm_rot_l	elbow_flex_l	pro_sup_l
      4.46666670	     -1.10515607	      3.19543124	      0.14604490	     -0.09308346	      1.31366081	      0.11134630	      0.33174849	     -1.35540278	     -2.12319836	      0.76459624	      0.01334472	      4.84765735	     -4.00335258	     -7.49999987	      0.88502153	      1.73862476	     -7.83031744	      0.38252401	      0.00667630	      2.15104190	      1.83817651	     -7.49999987	     -4.76735104	     -1.22048294	     -2.14890194	      4.56871560	     -3.62014381	      7.76770131	     24.18618965	     79.14765483	      3.59733973	     -4.97324958	      3.90414707	     24.70790474	     78.78150525
      4.48333330	     -0.95067856	      3.19881049	      0.17175387	     -0.09181386	      1.31535042	      0.11103838	      0.11036362	     -1.35975215	     -2.34760492	      0.77602207	      0.01354414	      5.06503970	     -3.53127011	     -7.49999987	      0.66472764	      1.71932067	     -8.05522079	      0.38634418	      0.00674298	      2.25110535	      2.30361936	     -7.49999987	     -5.00248898	     -1.21927379	     -2.11823729	      4.31999614	     -3.56519456	      5.81954626	     24.59963692	     88.36392119	      3.46914726	     -4.94278022	      2.51926969	     25.07894821	     87.81466692
      4.50000000	     -0.89646951	      3.17361429	      0.17900099	     -0.09201696	      1.31469528	      0.11089566	     -0.01050259	     -1.33238462	     -2.23729915	      0.78209691	      0.01365017	      4.96605734	     -3.69817763	     -7.49999987	      0.55921943	      1.68053578	     -8.02894063	      0.38602639	      0.00673743	      2.19366926	      2.20454257	     -7.49999987	     -5.06508193	     -1.17913634	     -2.15526857	      4.25009200	     -3.62013542	      6.09333807	     24.63108514	     87.01676356	      3.38524090	     -4.94592421	      2.70559123	     25.19744661	     86.49688202
      4.51666670	     -0.86081441	      3.15898414	      0.16483929	     -0.09259324	      1.31423232	      0.11084219	     -0.08353058	     -1.30752096	     -2.08117866	      0.79238486	      0.01382972	      4.92440838	     -3.77431447	     -7.49999987	      0.48389883	      1.65963845	     -7.98074458	      0.37765669	      0.00659135	      2.06160730	      1.95112856	     -7.49999987	     -5.09000345	     -1.17103945	     -2.10123732	      4.19057226	     -3.66947457	      6.48613399	     24.61820067	     85.11425022	      3.38944589	     -4.93877053	      3.05855531	     25.29998834	     84.60707345
      4.53333330	     -1.01774219	      3.13601205	      0.22270408	     -0.09247349	      1.31439891	      0.11068400	      0.05187693	     -1.27797298	     -1.98015854	      0.79933522	      0.01395103	      4.72675048	     -4.01710282	     -7.49999987	      0.64513989	      1.63505273	     -7.87831807	      0.37728089	      0.00658479	      1.95361898	      1.77410508	     -7.49999987	     -4.80062909	     -1.12838046	     -2.21075067	      4.21518722	     -3.62062520	      6.42652873	     24.32797987	     83.61347825	      3.36090286	     -4.87541205	      3.05876355	     25.07300888	     83.13536880
      4.55000000	     -0.84157125	      3.12267196	      0.22383262	     -0.09180133	      1.31472528	      0.11101304	     -0.16641832	     -1.25713045	     -2.16587414	      0.78749660	      0.01374441	      4.72211904	     -3.72899736	     -7.49999987	      0.41676602	      1.60957042	     -8.25448182	      0.37057911	      0.00646783	      2.05885475	      2.23623752	     -7.49999987	     -5.03787054	     -1.11965166	     -2.14309768	      4.11440828	     -3.76503417	      6.86319453	     24.68012081	     83.21679935	      3.33614129	     -4.94625663	      3.54800617	     25.37378504	     82.75571432
      4.56666670	     -0.88233571	      3.12836785	      0.26654221	     -0.09050920	      1.31608922	      0.11130585	     -0.16925161	     -1.26437409	     -2.25986703	      0.78546604	      0.01370897	      4.73789851	     -3.52858109	     -7.49999987	      0.41506820	      1.59825522	     -8.27916611	      0.36575852	      0.00638369	      1.91281506	      2.16569205	     -7.49999987	     -4.85145195	     -1.11821323	     -2.20876479	      3.97413639	     -3.73466412	      6.75068911	     24.67694760	     80.91291559	      3.24796681	     -4.91228179	      3.54494465	     25.42693280	     80.51322130
      4.58333330	     -0.97937251	      3.14132979	      0.25221249	     -0.09015936	      1.31704212	      0.11173652	     -0.09846109	     -1.26253272	     -2.07450966	      0.78502625	      0.01370129	      4.55374331	     -3.74323543	     -7.49999987	      0.47476631	      1.59615518	     -8.24935089	      0.36026533	      0.00628782	      1.66238155	      1.82691525	     -7.49999987	     -4.67558863	     -1.15728719	     -2.15162621	      3.81090023	     -3.63514007	      5.14328256	     24.72237360	     88.61673291	      3.19320626	     -4.89787245	      2.43366157	     25.42787372	     88.21735896
      4.60000000	     -1.00808663	      3.16961988	      0.24130193	     -0.09367781	      1.32203835	      0.11138138	      0.01728092	     -1.28058965	     -2.08408429	      0.71084283	      0.01240655	      4.55494234	     -3.73146927	     -7.49999987	      0.52208113	      1.61275045	     -8.27049259	      0.36446040	      0.00636103	      1.59902770	      1.85298136	     -7.49999987	     -4.71916662	     -1.18288413	     -2.19741061	      3.82171397	     -3.66060261	      5.14064344	     24.72909068	     88.61608842	      3.25437160	     -4.89354596	      2.43858413	     25.44110447	     88.21924761
      4.61666670	     -1.01954455	      3.21113824	      0.26185195	     -0.09306759	      1.31769450	      0.11187600	      0.15347939	     -1.32078695	     -2.01611539	      0.61471368	      0.01072878	      4.69194332	     -3.67787150	     -7.49999987	      0.57723293	      1.66903072	     -8.21540384	      0.35995636	      0.00628242	      1.42087309	      1.97292093	     -7.49999987	     -4.71931744	     -1.24991837	     -2.23799501	      3.86299718	     -3.66251831	      5.14881735	     24.78563766	     88.61704235	      3.31383048	     -4.93929427	      2.45524647	     25.44961497	     88.22740618
      4.63333330	     -1.00508752	      3.21272617	      0.25265226	     -0.09057559	      1.31610625	      0.11315204	      0.19480746	     -1.27895969	     -2.02656561	      0.58910164	      0.01028176	      4.72887069	     -3.66993573	     -7.49999987	      0.58636341	      1.66312577	     -8.22287523	      0.36915083	      0.00644290	      1.45161093	      1.98436593	     -7.49999987	     -4.73557698	     -1.31035472	     -2.28877071	      3.79999723	     -3.64897605	      5.15365991	     24.78587493	     88.61735008	      3.32648974	     -4.95943445	      2.46158434	     25.45139506	     88.23024487
      4.65000000	     -0.98627795	      3.22954849	      0.15914589	     -0.09338915	      1.31858998	      0.11180160	      0.29875482	     -1.29993668	     -2.03094395	      0.55252946	      0.00964346	      4.79785067	     -3.66284987	     -7.49999987	      0.61759314	      1.70100502	     -8.15635025	      0.35934803	      0.00627181	      1.50181087	      2.03122984	     -7.49999987	     -4.75769219	     -1.31783729	     -2.31144038	      3.81230214	     -3.65961410	      5.15307797	     24.80622948	     88.61701633	      3.35446658	     -4.96904763	      2.46670708	     25.46020832	     88.23241751
      4.66666670	     -0.92421073	      3.28068561	      0.22954845	     -0.09286282	      1.31831769	      0.11187904	      0.28789535	     -1.34912354	     -2.21634602	      0.54329069	      0.00948221	      5.27133517	     -3.06379692	     -7.49999987	      0.58834293	      1.75703886	     -8.04234732	      0.36900042	      0.00644027	      1.98813181	      2.76887204	     -7.49999987	     -4.81347515	     -1.40889466	     -2.40251751	      3.75376107	     -3.74570020	      5.79574654	     25.09776815	     87.01039246	      3.43611365	     -5.13206056	      3.47592411	     25.39319775	     86.80516260
